<svg width="35" height="34" viewBox="0 0 35 34" fill="none" xmlns="http://www.w3.org/2000/svg">
<path d="M15.1211 2.50008C15.5542 -0.0497462 19.2172 -0.0497462 19.6503 2.50008C19.9708 4.3867 22.3225 5.07722 23.6121 3.66335C25.355 1.75247 28.4365 3.73282 27.4223 6.11204C26.6719 7.87243 28.277 9.72474 30.1262 9.23253C32.6256 8.56728 34.1472 11.8992 32.0077 13.3525C30.4247 14.4277 30.7735 16.8537 32.5954 17.4394C35.0576 18.231 34.5363 21.8567 31.9508 21.9226C30.0378 21.9713 29.0196 24.2007 30.2355 25.6784C31.8789 27.6755 29.4802 30.4438 27.2695 29.1014C25.6338 28.1081 23.572 29.4332 23.796 31.3337C24.0988 33.9023 20.5842 34.9342 19.4502 32.6097C18.6112 30.8898 16.1602 30.8898 15.3212 32.6097C14.1873 34.9342 10.6727 33.9023 10.9755 31.3337C11.1995 29.4332 9.13761 28.1081 7.50193 29.1014C5.29126 30.4438 2.89253 27.6755 4.53592 25.6784C5.75187 24.2007 4.7337 21.9713 2.82067 21.9226C0.235159 21.8567 -0.286134 18.231 2.17609 17.4394C3.99791 16.8537 4.34671 14.4277 2.76371 13.3525C0.624241 11.8992 2.14589 8.56728 4.64522 9.23253C6.49448 9.72474 8.09953 7.87243 7.34914 6.11203C6.33498 3.73282 9.41645 1.75247 11.1594 3.66335C12.449 5.07722 14.8006 4.3867 15.1211 2.50008Z" fill="#005E09"/>
</svg>
